#!OML:ASF E:\EmotionMaleHayes\Project 1\Capture day 1\Session 1\Male1.ASF
:FULLY-SPECIFIED
:DEGREES
803
root 50.1669 16.6296 -0.890574 952.373 94.9623 951.845
lowerback 0.33857 1.78708 -6.7856
upperback 1.23798 2.45055 -1.50529
thorax 0.872249 1.186 2.25259
lowerneck -24.4836 1.14144 2.80314
upperneck 23.9185 1.02532 -1.26111
head 11.9426 0.596895 -0.753709
rclavicle 6.93262e-015 -7.15625e-015
rhumerus -32.5186 6.42586 -92.4752
rradius 30.7059
rwrist 0.726919
rhand -12.8332 -28.4784
rfingers 7.12502
rthumb 13.254 -58.037
lclavicle 6.93262e-015 -7.15625e-015
lhumerus -31.6181 -3.46846 86.4792
lradius 20.4869
lwrist -3.03533
lhand -15.2443 -24.4904
lfingers 7.12502
lthumb 10.9292 5.20517
rfemur 0.166475 -1.97732 15.6321
rtibia 22.1679
rfoot -23.9947 2.52531
rtoes 8.7035
lfemur -3.92288 1.8195 -24.2667
ltibia 28.0029
lfoot -24.3574 10.7741
ltoes -4.22667
804
root 50.167 16.6294 -0.889574 951.375 94.8591 950.884
lowerback 0.351696 1.78082 -6.6354
upperback 1.2602 2.44059 -1.47431
thorax 0.893029 1.18077 2.20116
lowerneck -24.4762 1.14146 2.79034
upperneck 23.8952 1.02345 -1.2395
head 11.9319 0.597505 -0.743745
rclavicle -1.57537e-014 -3.97569e-016
rhumerus -32.4807 6.58271 -92.5364
rradius 30.6206
rwrist 0.679976
rhand -12.8645 -28.3927
rfingers 7.12502
rthumb 13.2238 -57.9533
lclavicle -1.57537e-014 -3.97569e-016
lhumerus -31.4582 -3.57389 86.4777
lradius 20.5651
lwrist -2.70621
lhand -15.3569 -24.4742
lfingers 7.12502
lthumb 10.8206 5.22709
rfemur 0.226093 -2.40227 15.6926
rtibia 22.1031
rfoot -23.7887 2.95219
rtoes 9.03184
lfemur -3.8966 1.758 -24.1227
ltibia 28.0589
lfoot -24.4334 10.7871
ltoes -3.92173
805
root 50.1781 16.6255 -0.884326 949.838 94.6493 949.402
lowerback 0.197528 1.77678 -6.41389
upperback 1.33754 2.44868 -1.39615
thorax 1.06374 1.17924 2.16562
lowerneck -24.5895 1.08903 2.78588
upperneck 23.9414 0.961351 -1.28874
head 11.9702 0.562204 -0.772285
rclavicle 5.01186e-014 -1.98785e-014
rhumerus -32.4359 6.63518 -92.5242
rradius 30.5554
rwrist 0.707448
rhand -12.9187 -28.2535
rfingers 7.12502
rthumb 13.1716 -57.8174
lclavicle 5.01186e-014 -1.98785e-014
lhumerus -31.275 -3.72816 86.5367
lradius 20.5839
lwrist -2.31786
lhand -15.4655 -24.5581
lfingers 7.12502
lthumb 10.7158 5.14865
rfemur 0.379014 -2.50283 15.955
rtibia 22.0416
rfoot -23.8084 3.00625
rtoes 9.06313
lfemur -3.80796 1.86788 -23.8193
ltibia 28.1006
lfoot -24.4455 10.6476
ltoes -4.6099
806
root 50.1762 16.626 -0.893336 951.63 94.5458 951.066
lowerback 0.0292596 1.72511 -6.24159
upperback 1.34923 2.39375 -1.44006
thorax 1.18324 1.15027 2.03099
lowerneck -24.61 1.08556 2.82064
upperneck 23.8947 0.97268 -1.39909
head 11.9569 0.554327 -0.817602
rclavicle 1.31695e-015 1.78906e-014
rhumerus -32.4116 6.51402 -92.4617
rradius 30.5953
rwrist 0.907251
rhand -12.8966 -28.1128
rfingers 7.12502
rthumb 13.1928 -57.6754
lclavicle 1.31695e-015 1.78906e-014
lhumerus -31.0785 -3.8243 86.5539
lradius 20.6552
lwrist -2.12872
lhand -15.5671 -24.672
lfingers 7.12502
lthumb 10.6178 5.03974
rfemur 0.266176 -3.22884 15.7807
rtibia 22.0141
rfoot -23.7109 3.50589
rtoes 8.57099
lfemur -3.97536 1.9812 -23.8352
ltibia 28.1275
lfoot -24.3147 10.4863
ltoes -5.53371
807
root 50.1744 16.6274 -0.883469 951.101 94.547 950.549
lowerback 0.0165676 1.72894 -6.33774
upperback 1.37412 2.40122 -1.40281
thorax 1.21029 1.1514 2.12361
lowerneck -24.5779 1.11277 2.85385
upperneck 23.8151 1.01636 -1.46533
head 11.9215 0.566832 -0.840356
rclavicle 1.85367e-014 -2.46493e-014
rhumerus -32.4251 6.50394 -92.4436
rradius 30.6574
rwrist 1.00919
rhand -12.7543 -28.1339
rfingers 7.12502
rthumb 13.33 -57.6876
lclavicle 1.85367e-014 -2.46493e-014
lhumerus -30.9574 -3.85371 86.54
lradius 20.8318
lwrist -2.08182
lhand -15.6466 -24.6949
lfingers 7.12502
lthumb 10.5411 5.02082
rfemur 0.276191 -2.88511 15.9232
rtibia 21.9982
rfoot -23.7631 3.13297
rtoes 8.43821
lfemur -3.97863 2.04591 -23.7514
ltibia 28.131
lfoot -24.2619 10.4567
ltoes -5.60367
808
root 50.165 16.6307 -0.869778 951.565 94.8133 951.06
lowerback 0.172521 1.77445 -6.76821
upperback 1.35468 2.45233 -1.41325
thorax 1.08259 1.17726 2.34595
lowerneck -24.5545 1.12118 2.84333
upperneck 23.7723 1.0455 -1.51184
head 11.9014 0.571999 -0.851001
rclavicle -1.98039e-014 1.51076e-014
rhumerus -32.4739 6.57577 -92.4352
rradius 30.7064
rwrist 1.02065
rhand -12.6466 -28.2687
rfingers 7.12502
rthumb 13.4338 -57.8155
lclavicle -1.98039e-014 1.51076e-014
lhumerus -30.8756 -3.88222 86.5774
lradius 21.0313
lwrist -1.9356
lhand -15.6361 -24.601
lfingers 7.12502
lthumb 10.5512 5.1142
rfemur 0.212267 -2.07465 15.8902
rtibia 22.1001
rfoot -23.8888 2.43633
rtoes 8.67632
lfemur -3.93861 1.96461 -23.9616
ltibia 28.041
lfoot -24.2607 10.5816
ltoes -5.21241
809
root 50.1627 16.6311 -0.87886 953.312 94.7339 952.763
lowerback 0.164303 1.7248 -6.62268
upperback 1.34798 2.38664 -1.45946
thorax 1.09352 1.14622 2.2179
lowerneck -24.6169 1.09494 2.7942
upperneck 23.7368 1.00465 -1.44917
head 11.8978 0.556567 -0.826212
rclavicle 1.39398e-014 -3.97569e-015
rhumerus -32.5092 6.60688 -92.4537
rradius 30.7181
rwrist 0.888386
rhand -12.917 -28.2086
rfingers 7.12502
rthumb 13.1732 -57.7724
lclavicle 1.39398e-014 -3.97569e-015
lhumerus -30.7402 -3.85999 86.6004
lradius 21.1101
lwrist -1.84736
lhand -15.737 -24.7169
lfingers 7.12502
lthumb 10.4539 5.00321
rfemur 0.0955317 -2.70471 15.701
rtibia 22.2668
rfoot -23.8378 2.97432
rtoes 9.04848
lfemur -3.93 1.857 -24.0386
ltibia 27.9201
lfoot -24.2089 10.5511
ltoes -4.92948
810
root 50.1632 16.6318 -0.873979 955.575 94.8722 954.955
lowerback 0.0354427 1.69534 -6.88923
upperback 1.36783 2.36427 -1.51967
thorax 1.18139 1.13035 2.30873
lowerneck -24.663 1.10676 2.78274
upperneck 23.676 0.997771 -1.36859
head 11.8825 0.562095 -0.795057
rclavicle 2.58917e-014 -2.10712e-014
rhumerus -32.4902 6.66658 -92.5067
rradius 30.6575
rwrist 0.695511
rhand -13.2807 -28.0577
rfingers 7.12502
rthumb 12.8226 -57.6439
lclavicle 2.58917e-014 -2.10712e-014
lhumerus -30.5611 -3.83736 86.6093
lradius 21.1402
lwrist -1.70498
lhand -15.9175 -24.9439
lfingers 7.12502
lthumb 10.2798 4.78491
rfemur -0.0877381 -2.82642 15.4513
rtibia 22.4861
rfoot -23.9087 3.07548
rtoes 9.06585
lfemur -3.93664 1.82318 -24.2755
ltibia 27.7629
lfoot -24.1869 10.5114
ltoes -4.36513
811
root 50.1641 16.6267 -0.88599 959.731 95.0332 959.036
lowerback -0.0975692 1.60638 -7.03967
upperback 1.38187 2.26453 -1.64367
thorax 1.27971 1.0776 2.26909
lowerneck -24.6224 1.15753 2.81976
upperneck 23.5999 1.05888 -1.38376
head 11.8472 0.589979 -0.796259
rclavicle 2.19409e-014 -2.82274e-014
rhumerus -32.4464 6.67428 -92.4814
rradius 30.5785
rwrist 0.904301
rhand -13.0712 -28.2008
rfingers 7.12502
rthumb 13.0246 -57.7742
lclavicle 2.19409e-014 -2.82274e-014
lhumerus -30.4203 -3.93484 86.684
lradius 21.2982
lwrist -1.45784
lhand -15.9591 -24.8424
lfingers 7.12502
lthumb 10.2396 4.88836
rfemur -0.196474 -3.97319 14.7991
rtibia 22.5847
rfoot -23.7835 4.01236
rtoes 8.5594
lfemur -3.98583 1.86442 -24.6888
ltibia 27.7114
lfoot -24.0814 10.3833
ltoes -4.59907
812
root 50.1728 16.6215 -0.876738 959.313 95.1976 958.669
lowerback -0.182793 1.64169 -7.27096
upperback 1.40076 2.32377 -1.64809
thorax 1.33394 1.10273 2.39621
lowerneck -24.6628 1.13857 2.81865
upperneck 23.667 1.03427 -1.3884
head 11.8802 0.578897 -0.802161
rclavicle -2.73329e-016 -2.66371e-014
rhumerus -32.4852 6.62823 -92.4261
rradius 30.5214
rwrist 1.21044
rhand -12.748 -28.3657
rfingers 7.12502
rthumb 13.3361 -57.9189
lclavicle -2.73329e-016 -2.66371e-014
lhumerus -30.3697 -4.02473 86.7492
lradius 21.5522
lwrist -1.39129
lhand -15.7454 -24.5187
lfingers 7.12502
lthumb 10.4457 5.20177
rfemur -0.21081 -3.61419 14.7566
rtibia 22.7499
rfoot -24.0177 3.76667
rtoes 8.32433
lfemur -3.83239 1.98283 -24.78
ltibia 27.618
lfoot -23.9929 10.4004
ltoes -4.96919
813
root 50.1712 16.6229 -0.875037 956.387 94.8465 955.747
lowerback -0.100761 1.65919 -6.79688
upperback 1.35001 2.32656 -1.54382
thorax 1.24717 1.11093 2.23684
lowerneck -24.583 1.17473 2.80322
upperneck 23.6727 1.06595 -1.28662
head 11.8674 0.606534 -0.75594
rclavicle 3.13086e-015 -1.03368e-014
rhumerus -32.561 6.63553 -92.4361
rradius 30.4067
rwrist 1.30251
rhand -12.8627 -28.2784
rfingers 7.12502
rthumb 13.2256 -57.8388
lclavicle 3.13086e-015 -1.03368e-014
lhumerus -30.388 -4.08885 86.7895
lradius 21.801
lwrist -1.26009
lhand -15.5992 -24.4588
lfingers 7.12502
lthumb 10.5868 5.25455
rfemur -0.137591 -3.54466 15.269
rtibia 22.6171
rfoot -23.8984 3.72303
rtoes 8.88754
lfemur -3.85997 2.00576 -24.2875
ltibia 27.7505
lfoot -24.0727 10.3383
ltoes -5.10372
814
root 50.1713 16.6204 -0.877532 959.823 95.164 959.181
lowerback -0.140513 1.61863 -7.16902
upperback 1.36531 2.28659 -1.68055
thorax 1.28181 1.08808 2.30404
lowerneck -24.6951 1.17354 2.81778
upperneck 23.7956 1.05843 -1.28994
head 11.9363 0.604941 -0.761004
rclavicle -1.67973e-014 1.94809e-014
rhumerus -32.5117 6.57745 -92.4122
rradius 30.2724
rwrist 1.43946
rhand -12.9778 -28.1652
rfingers 7.12502
rthumb 13.1146 -57.7328
lclavicle -1.67973e-014 1.94809e-014
lhumerus -30.306 -4.26142 86.8802
lradius 21.9444
lwrist -0.874224
lhand -15.7115 -24.7114
lfingers 7.12502
lthumb 10.4785 5.0074
rfemur -0.0503825 -4.0629 14.6608
rtibia 22.4502
rfoot -23.6784 4.16494
rtoes 9.13832
lfemur -3.95866 2.02342 -24.7738
ltibia 27.8874
lfoot -24.1505 10.2835
ltoes -5.33081
815
root 50.1643 16.6315 -0.872181 952.426 94.342 951.647
lowerback -0.233083 1.64845 -6.15218
upperback 1.35529 2.31039 -1.40298
thorax 1.3452 1.10418 2.02815
lowerneck -24.7898 1.19378 2.86469
upperneck 23.8117 1.0794 -1.34016
head 11.9618 0.611098 -0.78405
rclavicle -1.29459e-014 2.10712e-014
rhumerus -32.3903 6.39268 -92.3054
rradius 30.1812
rwrist 1.58756
rhand -12.7512 -28.2623
rfingers 7.12502
rthumb 13.333 -57.8157
lclavicle -1.29459e-014 2.10712e-014
lhumerus -30.1473 -4.51372 87.0193
lradius 22.0488
lwrist -0.548855
lhand -15.8875 -24.9935
lfingers 7.12502
lthumb 10.3087 4.7339
rfemur -0.081266 -3.59821 15.9757
rtibia 22.1815
rfoot -23.7285 3.5861
rtoes 8.42142
lfemur -4.2503 1.9704 -23.6051
ltibia 28.1095
lfoot -24.2432 10.2862
ltoes -5.07936
